<svg width="112" height="112" viewBox="0 0 112 112" fill="none" xmlns="http://www.w3.org/2000/svg">
<path opacity="0.2" d="M56.38 111.76C86.9655 111.76 111.76 86.9655 111.76 56.38C111.76 25.7945 86.9655 1 56.38 1C25.7945 1 1 25.7945 1 56.38C1 86.9655 25.7945 111.76 56.38 111.76Z" fill="white" stroke="white" stroke-width="0.25" stroke-miterlimit="10"/>
<path opacity="0.3" d="M96.8601 51.0501C98.55 51.0501 99.9201 49.68 99.9201 47.9901C99.9201 46.3001 98.55 44.9301 96.8601 44.9301C95.1701 44.9301 93.8 46.3001 93.8 47.9901C93.8 49.68 95.1701 51.0501 96.8601 51.0501Z" fill="white"/>
<g opacity="0.3">
<path opacity="0.3" d="M67.5899 14.17C77.4199 20.01 87.8699 27.49 90.9599 39.17C91.7799 42.28 96.6099 40.96 95.7799 37.84C92.3499 24.88 81.0899 16.37 70.1099 9.88005C67.3299 8.23005 64.8199 12.55 67.5899 14.19V14.17Z" fill="white"/>
</g>
</svg>
