<?xml version="1.0" encoding="utf-8"?>
<!-- Generator: Adobe Illustrator 21.0.1, SVG Export Plug-In . SVG Version: 6.00 Build 0)  -->
<svg version="1.1" id="Layer_1" xmlns="http://www.w3.org/2000/svg" xmlns:xlink="http://www.w3.org/1999/xlink" x="0px" y="0px"
	 viewBox="0 0 80 80" style="enable-background:new 0 0 80 80;" xml:space="preserve">
<style type="text/css">
	.st0{fill:#FFFFFF;}
</style>
<g>
	<path class="st0" d="M25.6,38.2c0.2,0,0.3,0,0.5,0c1.8,0,2.8-1.5,3.1-2.3c-3.3-2.5-5.3-4.6-5.3-4.6c3.4,2.6,5.1,3.7,5.9,4.2
		c2.4-0.3,2.9-2.7,2.9-2.7s2.4-0.4,2.7-2.7c-0.4-0.8-1.5-2.5-4.2-6c0,0,2.1,2,4.6,5.3c0.8-0.3,2.5-1.3,2.3-3.6c0,0,2-0.4,2.4-2.4
		c-0.2-0.5-1.1-2.2-4.4-6.4c0,0,2.2,1.9,4.8,5.2c0.6-0.3,1.9-1.1,1.8-3.2l-1.3-3.2c-1.7-3.5-5.2-5.7-9.1-5.7c-0.1,0-0.2,0-0.2,0
		c-3.5,0.1-7.1,1.2-9.5,2.7c-3.8,2.4-5.2,4.6-5.2,4.6s-2,0.9-4.6,5.2c-1.5,2.4-2.6,6-2.7,9.5c-0.1,4,2.1,7.6,5.7,9.3l3,1.5
		c0.1,0,0.2,0,0.3,0c1.7,0,2.5-1.1,2.7-1.8c-3.1-2.5-4.9-4.6-4.9-4.6c3.4,2.7,5.1,3.8,5.9,4.2C24.9,40.9,25.6,38.2,25.6,38.2z"/>
	<path class="st0" d="M46.4,47.8c0.5,0.6,0.8,0.8,1.4,1.2c0,0,0.1,0,0.1,0.1c0.1,0.2,0.2,0.4,0.3,0.5c0,0.1,0,0.3,0.1,0.5
		c0.1,0.4,0.4,0.9,0.8,1.1c0.1,0.1,0.3,0.1,0.4,0.1c0,0,0.1,0,0.1,0c0.5,0.4,0.9,0.7,1.4,0.8c0.2,0.3,0.4,0.5,0.8,0.6
		c0.1,0,0.2,0,0.2,0c0.4,0,0.6-0.2,0.9-0.4c0.3,0,0.6-0.1,0.9-0.1c2.9-0.6,3.1-3.8,2.1-3.8c0,0,0,0,0,0c-0.9,0-0.1,2.3-2.4,2.3
		c-0.3,0-0.6,0-1.1-0.1c-3.6-0.7-2-3.6-7.7-13.4c-2.2-3.8-4.5-6.5-6.5-8.3c-0.5,0.7-1.2,1.2-1.8,1.5c-0.3,1.8-1.6,2.9-2.7,3.3
		c0,0.3,0,0.5,0.2,0.7c0.2,0.3,0.4,0.4,0.6,0.4c0.4,0,0.9-0.4,1.3-0.4c0.2,0,0.3,0.1,0.5,0.3c0.2,0.4-0.2,0.7,0.3,1
		c0.1,0.1,0.3,0.2,0.4,0.2c0.3,0,0.5-0.2,0.9-0.3c0.1,0,0.2,0,0.3,0c1,0,0.8,1.2,0.8,1.9c0,0.4,0.2,1,0.7,1.3
		c0.2,0.1,0.3,0.1,0.5,0.1c0.2,0,0.4,0,0.6,0c0.1,0,0.2,0,0.3,0c0.5,0.1,0.8,0.4,0.8,1c0,0.6-0.1,1,0.3,1.6c0.3,0.5,0.7,0.8,1.2,0.9
		c0.5,0.1,0.8,0.3,0.9,0.8c0.1,0.5-0.1,0.9,0.1,1.3c0.3,0.7,0.6,0.5,1.1,0.8c0.4,0.2,0.5,0.6,0.6,1c0,0.2-0.1,0.6-0.1,0.8
		C46,47.3,46.3,47.5,46.4,47.8z"/>
	<path class="st0" d="M33,35.2c-0.1,0-0.1-0.1-0.1-0.1c-0.6,0.7-1.4,1.3-2.6,1.5c-0.3,0.5-0.6,1-1.1,1.5c2,2.7,3.6,3.1,5.7,4
		c2.8,1.3,5.7,2.1,7,3.4c0.8,0.9,1.9,2.6,2.2,2.6c0.1,0,0.1-0.4-0.3-1.6c0-0.5,0.1-1,0-1.4c-0.1-0.7-0.7-0.9-1.1-1.5
		c-0.2-0.2-0.1-0.5-0.3-0.7c-0.2-0.4-0.5-0.4-0.8-0.5c-0.5-0.1-1.2-0.3-1-1c-0.4-0.7-0.9-0.8-1.4-0.8c-0.2,0-0.4,0-0.6,0
		c-0.1,0-0.2,0-0.2,0c-0.7,0-0.9-0.5-1.1-1.2c-0.2-0.8-0.5-1.4-1.4-1.4c0,0,0,0-0.1,0c-0.2,0-0.5,0.1-0.8,0.1c-0.1,0-0.2,0-0.3-0.1
		c-0.4-0.2-0.3-0.6-0.5-0.9c0.1-0.3,0-0.7,0-1.1C33.9,35.6,33.5,35.5,33,35.2z"/>
	<path class="st0" d="M70.5,61.3c-0.1-0.1-0.2-0.2-0.4-0.3c-0.3-0.3-0.8-0.7-1.2-1.4c-0.4-0.7-0.8-1.6-1-2.6
		c-0.2-1.1-0.2-2.3-0.5-3.7c-0.1-0.7-0.4-1.4-0.9-2c-0.2-0.3-0.6-0.5-0.9-0.7c-0.4-0.2-0.7-0.3-1.1-0.4c-0.8-0.2-1.6-0.3-2.3-0.5
		c0,0-0.1,0-0.1,0c-0.4-0.5-0.8-1-1.3-1.4c-0.4-0.3-0.7-0.6-1.1-0.9c-0.1-0.4-0.2-0.8-0.2-1.2c-0.1-0.9,0-1.7,0-2.6
		c0-0.9-0.1-1.8-0.3-2.7c-0.2-0.9-0.5-1.8-1-2.6c-0.3-0.4-0.7-0.7-1.1-1c-0.4-0.3-0.8-0.5-1.3-0.6c-0.9-0.3-1.8-0.4-2.7-0.4
		c-0.9,0-1.8,0-2.6-0.1c-0.1,0-0.2,0-0.3,0c-0.1-0.7-0.2-1.4-0.4-2.1c-0.5-1.7-1.7-3.1-3.1-3.8c-0.7-0.4-1.4-0.6-2.1-0.8
		c-0.5-0.1-1-0.2-1.4-0.3c-0.2-1.3-0.2-2.6-0.4-3.7c-0.2-1-0.4-1.8-0.7-2.6c-0.1,0.1-0.3,0.2-0.4,0.3c0,0.4-0.1,0.8-0.3,1.2
		c0.1,0.4,0.2,0.8,0.3,1.3c0.2,0.9,0.3,2,0.4,3.2c-0.3-0.1-0.6-0.3-0.8-0.4c-0.2-0.1-0.4-0.3-0.5-0.4l-0.1-0.1l-0.1-0.1
		c0,0,0,0,0-0.1c-0.1-0.1-0.2-0.2-0.2-0.3c-0.2-0.3-0.4-0.6-0.6-1c-0.2,0.1-0.3,0.2-0.5,0.3c0,0.4-0.1,0.7-0.2,1
		c0.1,0.1,0.2,0.3,0.3,0.4c0.1,0.1,0.2,0.2,0.3,0.3c0,0,0,0,0.1,0.1l0.1,0.1l0.1,0.1c0.2,0.2,0.5,0.4,0.7,0.6
		c0.5,0.4,1.2,0.7,1.8,0.9c0,0,0,0,0,0c0.1,0.4,0.2,0.7,0.3,1.1c0.1,0.3,0.2,0.7,0.4,1.1c0.1,0.2,0.2,0.4,0.3,0.5
		c0.1,0.2,0.2,0.4,0.3,0.5c0.5,0.7,1.1,1.3,1.8,1.8c0.7,0.5,1.5,0.9,2.4,1.1c0.3,0.1,0.7,0.2,1,0.2c0,0.4,0.1,0.7,0.2,1.1l0.1,0.3
		l0.1,0.3c0,0.2,0.1,0.4,0.2,0.6c0.5,1.7,1.6,3.2,2.8,4.4c0.3,0.3,0.6,0.6,0.9,0.9c0.3,0.3,0.7,0.6,1,0.8c0.7,0.5,1.4,1,2,1.4
		c1.4,0.9,2.7,1.7,3.9,2.7c0.6,0.5,1,1,1.3,1.5c0.3,0.6,0.4,1.1,0.4,1.8c0,0.6-0.1,1.3-0.1,2c0,0.7,0,1.4,0.1,2
		c0.1,0.6,0.2,1.2,0.4,1.8c0.1,0.3,0.2,0.6,0.3,0.8c0.1,0.1,0.1,0.3,0.2,0.4c0.1,0.1,0.1,0.2,0.2,0.4c0.6,1,1.4,1.5,2.1,1.9
		c0.7,0.4,1.2,0.6,1.6,0.7c0.4,0.1,0.6,0.2,0.6,0.2s-0.2-0.1-0.5-0.4c-0.3-0.3-0.8-0.6-1.3-1.1c-0.5-0.5-1.1-1.1-1.5-1.9
		c0-0.1-0.1-0.2-0.1-0.3c0-0.1-0.1-0.2-0.1-0.3c-0.1-0.2-0.1-0.4-0.2-0.7c-0.1-0.5-0.2-1.1-0.3-1.7c-0.1-0.6-0.1-1.2-0.1-1.8
		c0-0.6,0.2-1.3,0.2-2.1c0-0.4,0-0.8-0.1-1.2c0-0.2-0.1-0.4-0.2-0.6c-0.1-0.2-0.2-0.5-0.3-0.6c0,0-0.1-0.1-0.1-0.1
		c0.7,0.2,1.4,0.2,2.1,0.4c0.4,0.1,0.7,0.2,1.1,0.3c0.4,0.2,0.6,0.4,0.9,0.6c0.5,0.5,0.7,1.2,0.9,1.9c0.3,1.3,0.3,2.6,0.6,3.7
		c0.2,1.1,0.6,2,1,2.7c0.4,0.7,0.9,1.1,1.2,1.4C70.3,61.1,70.4,61.2,70.5,61.3c0.1,0.1,0.1,0.1,0.1,0.1S70.6,61.3,70.5,61.3z
		 M44.4,33c-0.5-0.8-0.8-1.7-1-2.5c0.3,0.1,0.6,0.1,0.8,0.2c0.6,0.1,1.2,0.4,1.7,0.7c1.1,0.6,2,1.7,2.4,3c0.1,0.5,0.2,1,0.3,1.5
		c-0.2-0.1-0.4-0.1-0.7-0.2C46.5,35.2,45.2,34.2,44.4,33z M56.9,45.4c-0.7-0.5-1.3-0.9-2-1.4c-0.3-0.2-0.6-0.5-0.9-0.8
		c-0.3-0.3-0.6-0.5-0.9-0.8c-1.1-1.1-2-2.4-2.5-3.8c0-0.2-0.1-0.4-0.1-0.5l-0.1-0.3l-0.1-0.3c0-0.2-0.1-0.5-0.1-0.7c0,0,0.1,0,0.1,0
		c0.9,0,1.8,0,2.7,0c0.9,0,1.8,0.1,2.6,0.3c0.4,0.1,0.8,0.3,1.2,0.5c0.4,0.2,0.7,0.5,0.9,0.8c0.5,0.7,0.8,1.5,1,2.4
		c0.2,0.9,0.3,1.8,0.3,2.6c0,0.9,0,1.8,0.1,2.7c0,0.3,0.1,0.6,0.1,0.8c-0.1-0.1-0.2-0.2-0.3-0.2C58.3,46.3,57.6,45.9,56.9,45.4z"/>
	<path class="st0" d="M61.6,64.1c-0.4-0.6-0.9-1.5-1.9-2.1c-0.1-0.1-0.2-0.1-0.4-0.2c-0.1-0.1-0.3-0.1-0.4-0.2
		c-0.3-0.1-0.6-0.2-0.8-0.3c-0.6-0.2-1.2-0.3-1.8-0.4c-0.6-0.1-1.3-0.1-2-0.1c-0.7,0-1.4,0.1-2,0.1c-0.6,0-1.2-0.1-1.8-0.4
		c-0.3-0.1-0.5-0.3-0.8-0.6c-0.2-0.3-0.4-0.5-0.7-0.7c0,0,0,0,0,0c0,0,0,0,0-0.1c-0.9-1.1-1.8-2.5-2.7-3.9c-0.5-0.7-0.9-1.4-1.4-2
		c-0.3-0.3-0.5-0.7-0.8-1c-0.3-0.3-0.6-0.6-0.9-0.9c-1.2-1.2-2.7-2.3-4.4-2.8c-0.2-0.1-0.4-0.1-0.6-0.2l-0.3-0.1l-0.3-0.1
		c-0.2,0-0.3,0-0.4-0.1c-0.1-0.3-0.1-0.7-0.2-1c-0.2-0.9-0.6-1.7-1.1-2.4c-0.5-0.7-1.1-1.3-1.8-1.8c-0.2-0.1-0.4-0.2-0.5-0.3
		c-0.2-0.1-0.4-0.2-0.5-0.3c-0.4-0.2-0.8-0.3-1.1-0.4c-0.6-0.2-1.2-0.3-1.8-0.4c0,0,0,0,0,0c-0.2-0.6-0.5-1.3-0.9-1.8
		c-0.2-0.3-0.4-0.5-0.6-0.7L28.2,39L28.1,39c0,0,0,0-0.1,0c-0.5,0.2-1,0.4-1.6,0.5c0.1,0.1,0.3,0.2,0.4,0.3c0.1,0.1,0.2,0.1,0.3,0.2
		c0,0,0.1,0,0.1,0l0.1,0.1l0.1,0.1c0.1,0.2,0.3,0.3,0.4,0.5c0.2,0.2,0.3,0.5,0.4,0.8c-0.9-0.1-1.7-0.2-2.5-0.3
		c-0.2,0-0.4-0.1-0.5-0.1c-0.4,0.3-0.8,0.6-1.3,0.8c0.5,0.1,1,0.3,1.6,0.4c0.9,0.1,1.9,0.2,3,0.4c0.1,0.4,0.2,0.9,0.3,1.4
		c0.2,0.7,0.4,1.4,0.8,2.1c0.7,1.4,2.1,2.6,3.8,3.1c0.8,0.2,1.6,0.4,2.4,0.5c0.1,0,0.3,0,0.4,0.1c0,0.1,0,0.2,0,0.2
		c0.1,0.8,0,1.7,0.1,2.6c0,0.9,0.1,1.8,0.4,2.7c0.1,0.4,0.3,0.9,0.6,1.3c0.3,0.4,0.6,0.8,1,1.1c0.8,0.6,1.7,0.9,2.6,1
		c0.9,0.2,1.8,0.3,2.7,0.3c0.9,0,1.8,0,2.6,0c0.2,0,0.3,0,0.5,0.1c0.3,0.4,0.6,0.8,0.9,1.2c0.5,0.6,1.2,1.2,1.9,1.6
		c0.1,0,0.2,0.1,0.3,0.1c0.2,0.7,0.2,1.4,0.4,2c0.1,0.4,0.2,0.8,0.4,1.1c0.2,0.3,0.4,0.7,0.7,0.9c0.6,0.5,1.3,0.7,2,0.9
		c1.3,0.3,2.6,0.3,3.7,0.5c1.1,0.2,2,0.5,2.6,1c0.7,0.4,1.1,0.9,1.4,1.2c0.1,0.2,0.3,0.3,0.3,0.4c0.1,0.1,0.1,0.1,0.1,0.1
		s0,0-0.1-0.1c-0.1-0.1-0.2-0.2-0.3-0.4c-0.3-0.3-0.7-0.8-1.4-1.2c-0.7-0.4-1.6-0.8-2.7-1c-1.1-0.3-2.3-0.3-3.6-0.6
		c-0.7-0.1-1.3-0.4-1.9-0.9c-0.3-0.2-0.5-0.5-0.6-0.9c-0.1-0.3-0.3-0.7-0.3-1.1c-0.1-0.6-0.2-1.2-0.3-1.8c0.2,0.1,0.4,0.1,0.6,0.2
		c0.4,0.1,0.8,0.1,1.2,0.1c0.8,0,1.5-0.1,2.1-0.2c0.6,0,1.2,0,1.8,0.1c0.6,0.1,1.2,0.2,1.7,0.3c0.3,0.1,0.5,0.1,0.7,0.2
		c0.1,0,0.2,0.1,0.3,0.1c0.1,0,0.2,0.1,0.3,0.1c0.8,0.4,1.4,1,1.9,1.5c0.5,0.5,0.8,1,1.1,1.3c0.2,0.3,0.4,0.5,0.4,0.5
		s-0.1-0.2-0.2-0.6C62.2,65.3,62,64.8,61.6,64.1z M33.9,47.7c-1.3-0.3-2.4-1.3-3-2.4c-0.3-0.6-0.5-1.2-0.7-1.7
		c-0.1-0.3-0.1-0.6-0.2-0.9c1.1,0.2,2.2,0.4,3.2,1.1c1.2,0.8,2.2,2.1,2.6,3.6c0.1,0.2,0.1,0.5,0.2,0.7C35.3,48,34.6,47.9,33.9,47.7z
		 M46.5,58.5c-0.9-0.1-1.8-0.1-2.7-0.1c-0.9,0-1.8-0.1-2.6-0.3c-0.9-0.2-1.7-0.5-2.4-1c-0.3-0.3-0.6-0.6-0.8-0.9
		c-0.2-0.4-0.4-0.7-0.5-1.1c-0.2-0.8-0.3-1.7-0.3-2.6c0-0.9,0-1.7,0-2.6c0,0,0-0.1,0-0.1c0,0,0,0,0,0l0.3,0.1l0.3,0.1
		c0.2,0,0.4,0.1,0.5,0.1c1.4,0.4,2.7,1.4,3.8,2.5c0.3,0.3,0.6,0.6,0.8,0.9c0.3,0.3,0.5,0.6,0.8,0.9c0.5,0.6,1,1.3,1.4,2
		c0.5,0.7,0.9,1.3,1.4,2c0.1,0.1,0.1,0.2,0.2,0.3C46.5,58.5,46.5,58.5,46.5,58.5z"/>
</g>
</svg>
