<svg xmlns="http://www.w3.org/2000/svg" viewBox="0 0 1344.15 1275.79"><defs><style>.cls-1,.cls-2{fill:#fff;}.cls-1{stroke:#fff;stroke-miterlimit:10;}</style></defs><g id="圖層_2" data-name="圖層 2"><g id="圖層_1-2" data-name="圖層 1"><path class="cls-1" d="M1183.6,766.69c-7.74-12.13-19.38-16.87-32.33-16.94-22.58-.11-44.29,5.35-65.17,14.14-16.4,6.91-33.22,12-51.44,11.13-9.34-.43-18.76.94-28.12.68-8.25-.23-16.46-1.29-24.29-4.64-7.48-3.19-13.85-7.86-20.35-12.58a35.34,35.34,0,0,1-11.08-13.17c-2.6-5.2-5-10.51-8-15.52-2.76-4.75-3.63-9.73-3.72-15.11-.25-13.76,3.05-26.92,6.35-40.09a37.62,37.62,0,0,1,3.56-9.23q13.37-23.88,27.06-47.59c12-20.87,25.67-40.65,39.9-60.06,8.5-11.59,17-23.19,25.18-35,5.36-7.72,10.27-15.76,15.25-23.74,7.28-11.67,14.56-23.34,21.61-35.14,5.1-8.55,9.82-17.31,14.7-26,2.17-3.84,3.88-8,6.53-11.5a171.88,171.88,0,0,0,21-36.65c4.72-10.93,8.8-22.19,9.37-34.29.26-5.51-.29-11.06,0-16.57.62-12.16,2.61-24.34,2.09-36.43-1-22.2-5.6-43.42-23.45-59.14-.41-.36-.63-.92-1-1.31-7.48-7.72-16-13.6-27-14.87-9.31-1.08-14.61,2.88-16.56,12.07a21.58,21.58,0,0,0-.37,4.95c.2,7.43.73,14.87.67,22.3-.12,13.26-.54,26.51-.91,39.77a368.53,368.53,0,0,1-5.85,58.51c-4.13,21.82-14.74,40.19-28.26,57.42-10.38,13.22-24,22.89-35.89,34.37a15.53,15.53,0,0,1-4,2.93c-12.49,5.87-25.13,11-38.74,14.24-18.77,4.53-33.46-2.84-48-12.42a10.11,10.11,0,0,1-2.51-3.19c-9-14.17-12.57-29.9-13.4-46.39-1.34-26.81,7.47-51.36,18.37-75,7.62-16.55,16.81-32.47,26.41-48,4.56-7.37,11.35-13.54,17.84-19.46,4-3.63,9.13-6.1,14-8.5,12.9-6.31,25.92-12.4,39-18.4,10.67-4.9,16.34-13.73,19.78-24.38,5.4-16.71,5.13-33.77,3.11-51-2.76-23.62-18.6-32.52-38.71-34.91-9.66-1.15-16,4.28-17.2,13.88-.8,6.59-.82,13.28-1.58,19.88-.41,3.49-1,7.28-2.65,10.26-5.3,9.41-11,18.57-22.08,22.55-2.27.82-4.07,2.86-6.24,4.07-3.38,1.87-6.74,3.93-10.36,5.17-5.78,2-10.88-.4-12.86-5.84-3-8.17-4.56-16.7-2.93-25.33,1.49-7.87,3.84-15.58,5.8-23.36,6.2-24.64,17-48.07,19.27-73.76.91-10.23,2.47-20.4-1.75-30.34-2.46-5.81-5.67-10.46-12.08-12.75-8.16-2.92-15.79-2.37-23.15,1.83-2.56,1.46-5.46,3.19-6.88,5.59a40.84,40.84,0,0,0-5.26,13C884.73,65,881,71.9,876.41,78.6c-3.46,5.09-8.59,7.24-13.92,4.52A97.26,97.26,0,0,1,850,74.93c-6.78-4.89-8.43-12-8.07-19.84.22-4.71.83-9.4,1-14.1.78-19.73-7.61-32.6-26-38.67-6.2-2-12.73-2.89-19.41.3C776,12.9,766.22,31.53,761.26,53.35c-2.14,9.39-2.7,19.15-3.62,28.78A40.66,40.66,0,0,0,758,94.5c5.3,24.39,17.22,44.73,37.83,59.36,10.78,7.65,18.37,18.33,27.24,27.79a11.83,11.83,0,0,1,2.31,4.4c4,12.6,11.37,23.82,13.54,37.28,2.3,14.28,5.73,28.2-.06,42.44-2.15,5.29-4.81,8.43-11,9.67-11.52,2.32-19.49-2.57-25.81-10.95a211.72,211.72,0,0,1-13.9-21.64c-4.31-7.42-7.55-15.49-12.15-22.71a440.85,440.85,0,0,0-37.1-49.78,153,153,0,0,0-10.6-11.7c-22.57-21.46-49.92-34.55-79.16-43.85-8.67-2.76-18-3.27-26,3.66-6.76,5.9-10.75,17.09-7,23.67a53.78,53.78,0,0,0,11.33,14.05c10.73,9.12,22.41,17.12,33.13,26.25,15.71,13.37,28.34,29.59,40,46.46,5,7.22,9,15.15,13.46,22.75,4.19,7.14,7.88,14.65,12.73,21.31,6.27,8.62,11.54,17.61,14.39,27.88,2.52,9.05,5,18.13,7.1,27.29,4.3,18.85,10,37.51,9.46,57.11q-.54,19.06-2.2,38.08c-1.52,17.65-4.57,35-10.82,51.71-.87,2.32-1.82,4.61-2.9,6.83-2.79,5.71-4.58,12.46-8.82,16.75-4.72,4.77-5.76,10.95-9.32,16-3.18,4.49-5.84,9.36-9.06,13.82-10.93,15.14-16.34,32.72-20.36,50.39-5.33,23.45-5.26,47.24,3.16,70.34,4.83,13.25,9,26.83,15,39.56,5.14,10.92,11.88,21.21,18.9,31.08,8.62,12.14,16.87,24.67,28.81,34.15,15,11.91,28.28,25.67,41.22,39.74a24.24,24.24,0,0,1,4.43,6c4.89,10.68,12,19.8,19.32,28.84,7.88,9.71,14.69,19.92,16.52,32.93,1.18,8.37.34,15.43-6.4,21-2.13,1.75-4.53,3.17-6.62,5-3,2.59-5.84,2-9.18.49-11.39-5.17-20.54-13.22-28-22.88-6.75-8.71-15.48-13.23-25.77-15.3-7.79-1.57-15.47-1.62-21.48,5.07-3,3.28-6,6.56-9.18,9.55-8.24,7.64-14.85,16.29-18.55,27.05-1.17,3.38-3,6.51-4.52,9.78-4.49,9.78-9.37,19.41-13.27,29.43a27,27,0,0,1-10,12.7c-5.59,4-11.37,5.91-17.76,2s-11-8.87-11.06-17.19c-.08-15.63,5.59-29.37,14.24-41.75A21.72,21.72,0,0,0,678.32,871c-1.1-13.3-8.42-23.37-17.47-32.1-2.78-2.68-8.07-4-12.15-3.86-12,.32-22.5,4.94-31.55,13-12.88,11.43-22.39,25.79-33.51,38.74-6.64,7.72-14.88,11.14-24,13.68a8.33,8.33,0,0,1-4-.29A20.22,20.22,0,0,1,540,884.41a107.49,107.49,0,0,1-1-47,239.9,239.9,0,0,1,10.28-35c5.83-15.5,12.35-30.78,19.38-45.78,11.5-24.56,23.74-48.77,35.5-73.21,6-12.47,12.21-25,15-38.6,2.9-14.07,5.91-28.21,7.19-42.48,1.42-15.77-3.38-30.07-15.62-41.06-4-3.63-8.72-6-14.28-5.86-18.72.54-33.13,9.27-44.41,23.74-7.67,9.82-9.15,21.7-11,33.46-.53,3.38-1.3,6.72-2.2,11.27-5.65-4.49-10.42-7.78-14.59-11.7-10.81-10.16-16-23.62-20.85-37.17-6.91-19.46-8.41-39.79-8.15-60.2.26-21.34,2.64-42.55,5.19-63.74,2.76-22.9,8.57-45.09,14.34-67.34s15.81-42.57,25.1-63.18c8.75-19.4,19.13-38.06,25.21-58.6a77.09,77.09,0,0,1,14.31-27.78,13.49,13.49,0,0,0,1.94-4.52c2.61-8.38,2.58-16.91,1.21-25.47a15,15,0,0,0-2.22-6.19c-11.92-16.73-33.23-18.29-48.25-10-12.49,6.91-19.89,18.07-23,32-2.56,11.35-3.33,22.8-3.68,34.44-.5,16.9-6.63,32.38-15.47,46.72a52.64,52.64,0,0,1-5.79,8.12c-7.64,8.34-22.2,9.08-24.51-4.18-1.31-7.57-3.74-15.06-4.08-22.65-.45-9.92.52-19.91,1.19-29.84.42-6.06,1.95-12.06,2-18.11.16-11,.16-22.13-.76-33.12-1.18-14.17-7-26.81-16-37.69-12-14.41-36.6-17.94-52.18-13.28-5.34,1.6-10.31,4.28-12.59,10-3.56,8.94-6.08,18.1-1.39,27.27,5.53,10.82,4.54,22.12,3.25,33.42-1.27,11.1-8.53,18.1-19.37,17.46-4.41-.26-8.86.08-13.28-.19A24,24,0,0,1,329,230.11a65.11,65.11,0,0,1-11.39-17.19c-6.67-15.27-17.18-21.49-32.65-19.42-3.28.44-6.64,2.5-9.33,4.62-4.85,3.82-5.76,9.77-7.29,15.42-3.75,13.83.21,26.12,8.63,36.54,8,9.86,17.47,18.53,26.62,27.4,7.79,7.55,13.91,16.21,15.51,26.89,2.67,17.9,3.55,35.95-3.72,53.19-3.62,8.58-6.74,17.38-14.72,23.57-9.28,7.2-18.09,7.94-27.95,1.37a80.81,80.81,0,0,1-25.18-27.17c-8.74-15.07-16.87-30.48-25.48-45.62-4.76-8.37-11-14.9-20.79-17.95-6.94-2.17-12.85-1.57-19,2-7,4-7.8,11.7-11.06,17.84-5.05,9.5-2.49,19.79-.36,29.27,3.46,15.36,8.65,30.3,16.87,44,2.84,4.73,4.8,10,7.64,14.7,3.25,5.41,6.86,10.63,10.6,15.72,6.4,8.69,15.5,14.08,24.62,19.33,6.18,3.55,11.32,8.9,18.8,10.27,3.75.69,7.24,2.66,10.93,3.78,8.44,2.57,17,4.92,25.41,7.47,13,3.92,25.9,7.81,37.41,15.51,7.09,4.74,14.87,8.49,22.45,12.47,10.27,5.41,21,10,30.89,16.05C387.6,506.91,398,515,404.14,527a147.32,147.32,0,0,1,8.05,17.3c4.32,12.07,6.94,24.71,4.44,37.39-2.36,11.92-7.81,22.89-15,32.83-1.24,1.73-3.19,3-4.93,4.31-11.54,8.73-25.36,9.37-38.78,9.35-15.73,0-30.71-4.53-45.47-10.41-14.34-5.71-24.38-15.58-33.42-27.37-4.86-6.33-10.46-12.11-15.91-18-3-3.22-6.42-6-9.54-9.12-2.75-2.73-5.11-5.86-8-8.36-13.66-11.69-24.35-25.36-31.37-42.14-4.1-9.79-11.39-17.64-20.44-23.54-11.59-7.55-23.91-4.21-28.05,8.88-4.42,13.94-8.21,28.34-5.13,43.3,2,9.49,3.53,19.12,6.39,28.33,6.88,22.17,12.81,44.92,30.52,61.79,1,.93,1.38,2.42,2.27,3.47,6.2,7.39,12.07,15.2,21.14,19.44,8,3.75,16.31,6.89,23.27,12.63,2.3,1.9,5.3,3,8,4.39,4.85,2.57,9.71,5.12,14.55,7.7s9.76,5.15,14.56,7.87a66.78,66.78,0,0,1,8.19,5.27c3.26,2.54,6.14,5.57,9.38,8.13,4.23,3.36,7,7.07,8.25,12.76,2.63,12.07-2,22.36-6.48,32.74-.92,2.13-3.93,4-6.36,4.74-13,4-25.74,1.73-38-3.33-6.36-2.63-12.1-6.94-18.59-9-16.85-5.34-34.07-5.94-51.59-2.8-8.37,1.5-14.25,7.1-21.41,10.51a6.51,6.51,0,0,0-2.62,3.15c-4.28,9.58-4.89,19.24.11,28.76,4.25,8.09,11.78,12.62,19.81,15.48,17.45,6.21,35.1,11.92,52.92,17a55.4,55.4,0,0,1,20.86,11.41c7.76,6.47,14.66,14,24.34,18.19,7.29,3.16,14.5,7.37,15.51,16.78,7.19,6.68,7.54,15.75,7.76,24.46.27,10.46-.42,21-4.07,31a16.72,16.72,0,0,1-7.17,8.5c-14.59,7.58-29.12,7.26-43.18-1.92-13.84-9-32.35-1.23-36.57,14.57-2.17,8.15,0,15.32,2.39,22.57s7.31,12.46,14.78,15.75c7.26,3.2,13.71,8.19,20.72,12,4.79,2.63,9.91,4.68,14.9,7,3.51,1.62,7.16,3,10.53,4.87,6.51,3.64,12.82,7.63,19.28,11.34,9.81,5.63,20.43,9.88,28.94,17.68,3.87,3.56,8,6.87,12.09,10.17,16.08,12.94,30.4,27.39,40.22,45.83a59.19,59.19,0,0,0,4.73,6.81c1.63,2.23,3.16,4.5,4.64,6.8,4.25,1,8.53,1.83,12.83,2.51l-.51-1c-7-13.28-16.18-25-24.92-37.13q-1.46-2-2.9-4c-5.46-7.7-11.27-15-18.92-20.8-9-6.86-17.55-14.4-26.47-21.43a57.9,57.9,0,0,0-10.52-6.6c-13.18-6.4-26.46-12.56-38.06-21.76a17.26,17.26,0,0,0-7.56-3.15c-6.28-1.09-11.11-4.42-15.94-8.31-3.57-2.87-7.91-4.79-11.94-7.08-3.85-2.19-8-3.92-11.55-6.53-9.8-7.29-9.09-27.8.94-33.14,7.05-3.75,10.73-2.45,15.09,5.36-1.81,3.77-9.63-.19-9.09,7.93,2.42-.7,4.37-1.21,6.29-1.85,2.58-.85,5.13-2.55,7.69-2.55a171.55,171.55,0,0,1,21.5,1.22c10.29,1.32,19.21-1.88,27.18-7.72a31.1,31.1,0,0,0,13.17-23c.71-7.88,2.06-15.79,2.77-23.53s-2.64-16.3-5.46-24c-4.45-12.16-13.09-20.94-24.84-26.61-5-2.42-8.94-6.24-13.16-9.85-8.12-6.93-16.48-13.72-27.15-17.12-12.4-3.94-25-7-37.52-10.27C195.87,791,186,785,176.08,779.63c-10.13-5.45-9.54-26.16,1.44-31.77s22.26-6.2,33.91-5.77A76.61,76.61,0,0,1,247,752.52c15.67,9,32.3,10.73,49.73,6.29,5.72-1.46,9.9-4.51,12.57-9.87,6.74-13.56,10.32-27.54,4.76-42.32-1.48-3.91-4.67-7.24-7.35-10.61-1-1.23-2.91-1.62-4.16-2.7-21.85-18.81-48.27-29.95-73.28-43.42-8-4.31-14.82-9.6-20-17-4.24-6.13-8.2-12.48-12.67-18.44C193,609.59,188,605.86,186,599.83c-4.19-12.28-9.09-24.35-12.71-36.79-2.54-8.72-3.57-17.89-5.05-26.9-2-12.12,1.43-23.7,5-34.93,2.84-9,10.47-9.69,17.63-3.32,10.4,9.26,16.83,21.15,22.94,33.29,6.75,13.43,17.72,23.1,28.39,33.22s21.26,20.33,30.25,31.8c10.32,13.17,21.79,23.7,37.36,30.59,13.88,6.14,28.23,8.9,42.93,10.38,6.73.67,13.71-.9,20.55-1.65,3-.32,6-1.38,9-1.69,10-1,17.3-6.45,24.2-13.19,9.52-9.29,13.31-21.44,17.14-33.46,1.64-5.12,1.38-10.92,1.54-16.42.7-23.4-9.23-43.29-23.28-60.57-9.47-11.65-21.68-21.45-36.16-27.27a254.69,254.69,0,0,1-38-18.6c-14-8.52-28.56-15.71-45.12-18-4.05-.56-7.86-2.63-11.83-3.86-7.13-2.2-14.82-3.27-21.31-6.66a201.44,201.44,0,0,1-27.82-17.91c-10.39-7.83-17.06-18.8-22.44-30.53a55.32,55.32,0,0,0-3.46-6.61c-10.22-15.93-15.9-33.53-17.92-52.15-.63-5.77.7-12.29,2.92-17.74,5.12-12.56,20.14-14.09,28.88-3.61,7.87,9.43,13.76,20,19.05,31,7.23,15,14.51,30.07,26.89,41.65,7.63,7.14,15.42,14.21,26.75,15.48,6.43.73,12.5-.06,17.45-3.65,9.2-6.68,17.85-14.14,21.32-25.71,2.54-8.47,6.22-16.8,7.31-25.45,2-15.71,1.19-31.54-3.7-46.83-2.77-8.68-8.45-15.4-15.08-21.52-8.13-7.52-16.24-15.11-23.74-23.24-9.93-10.75-13.22-27.12-6.75-40.15C283.85,199.2,295,197.6,302,206a56.28,56.28,0,0,1,8.67,13.11c3.91,8.93,10.32,15.67,17.28,22a19.36,19.36,0,0,0,7.92,4.27c12.92,3.32,25.74,3.35,38.22-2.23,8.37-3.75,12.44-10.17,13-19.27.28-5,2.21-10,1.65-14.76a140.91,140.91,0,0,0-5.1-22.54c-2-6.94-3.83-13.5,3-18.91.42-.33.94-.87.94-1.32-.05-7.52,5.79-8,10.88-8.62,20-2.39,38.13,5.33,46.29,26.66,4.9,12.82,5.36,25.94,6.14,39.17.59,10-.51,19.86-2.25,29.75a127.59,127.59,0,0,0-.49,43A95.51,95.51,0,0,0,452.87,313c2.56,7.05,8.66,10.58,15.45,10.76,9.1.24,17-3.49,23.35-10.65,8.27-9.32,13.43-20.4,17.12-31.83,3-9.31,3.28-19.52,4.54-29.36,1.23-9.6,1.5-19.36,3.4-28.81,3.63-18.06,15.08-29.09,30.88-31.51,9.35-1.43,17.65.5,23.32,9,.16.23.36.42.51.66,3.14,5.22,2.29,25.65-1.72,30.38-6.65,7.85-10.12,17.11-12.65,26.81A188.28,188.28,0,0,1,542.23,297c-8.17,15.93-14.36,32.87-21.45,49.35-1.3,3-2.77,6-4.28,8.95-6.66,13-8.69,27.32-12.72,41.09-6.56,22.43-9.51,45.43-13,68.44-2.69,17.93-3.06,35.86-3.39,53.82-.24,13,.07,26.18,2.33,38.9,3,17.14,8.59,33.85,18.06,48.7,7.84,12.28,18.86,21.68,30.73,30,1.58,1.11,4.29,1.83,6,1.26,2.8-.94,3.06-3.72,3.43-6.75,1.54-12.59,2.17-25.61,6-37.51,5-15.24,16.42-25.37,32.91-28A15,15,0,0,1,597,567.9c6.24,4.57,13.45,8.67,15,17.4,7.74,6.69,6,15.52,5,23.93-2.84,25.19-9.45,49.25-21,72-11.17,21.93-22,44.08-32.18,66.48-8.81,19.35-17.31,38.93-24.54,58.91-6.57,18.19-11.9,37-11,56.72a212.49,212.49,0,0,0,2.52,23.87c2,12.37,15.79,23.8,29.52,21.12,10.44-2,20.63-5.8,27.67-15.09,4.66-6.14,10.14-11.68,15.25-17.48a17.4,17.4,0,0,0,2.7-3.1c6.74-13.19,17.59-22.12,30.92-27.43,10.76-4.28,15.17-5.28,23.09,5.3,3.26,4.35,5.58,9.5,7.78,14.53,2.57,5.9,1.89,11.56-1.37,17.45-4.4,8-7.84,16.44-11.64,24.71-3.57,7.76-4.06,15.95-4,24.38.06,11.65,6.81,18.49,16.12,23.18,9,4.52,17.27,2.27,25.61-3.41s12.11-14.1,16.3-22.52a67,67,0,0,1,5.3-8.23c2.85-4.09,6.17-7.89,8.65-12.18,7-12.21,13.76-24.6,20.61-36.92a17.4,17.4,0,0,1,1.7-2.83c5.45-6.35,24-8.95,31.08-4.33a15.25,15.25,0,0,1,4.44,3.68c7,10.35,18,16.29,27.27,24,9.81,8.1,18.75,7.82,29.32.4,12.89-9,16.37-18.86,12.65-34.15a72.76,72.76,0,0,0-18.11-33.11,39.45,39.45,0,0,1-5.09-6.52c-4.69-7.78-8.68-16-13.88-23.44-5.86-8.36-12.11-16.64-19.3-23.84-10.11-10.11-21.4-19-31.87-28.8a97.63,97.63,0,0,1-13.86-15.39c-8.64-12.5-16.74-25.39-24.8-38.27-7.54-12.06-11.81-25.52-16.09-39-1-3.15-2.14-6.25-3.11-9.41-5-16.24-4.34-32.72-2.58-49.36,1.41-13.35,6.18-25.71,10.16-38.33,3.63-11.52,10.41-21.31,16.53-31.5,7.54-12.56,16-24.76,21.92-38.06,5.11-11.47,8.31-24.08,10.43-36.51,3-17.43,4.64-35.12,6-52.77,1.27-16.68-1.61-33.25-5.45-49.35-4.79-20.12-11.31-39.84-17.24-59.69a36.32,36.32,0,0,0-3.92-8.23c-7.6-12.48-14.92-25.16-23.1-37.26-9.73-14.38-19.42-28.93-30.63-42.14-9.56-11.26-19.59-22.2-32.58-30.42-9.86-6.22-17.56-15.86-26.15-24.05-4-3.8-4-8.67-1.91-13.08a13.75,13.75,0,0,1,12.58-8.19,24.09,24.09,0,0,1,7.37,1.15c13.22,4.07,26.37,8.35,38.61,15,3.88,2.11,8,3.84,11.85,5.94,15.63,8.45,27.57,21,39,34.32,11.78,13.68,22.16,28.36,32.29,43.21,4.49,6.58,7.44,14.2,11.61,21,6.74,11.07,13.24,22.4,21.11,32.64,6,7.81,15,11.12,25.27,8.95,1.62-.34,3.24-.73,4.88-1,10.82-1.85,15.23-6.71,18.07-17.33,2.94-11,2.06-21.51.64-32.61-2.45-19.07-10.46-36-17.91-53.16a27.23,27.23,0,0,0-5.12-7.46c-5.26-5.67-10.57-11.33-16.27-16.54-5.25-4.8-11-9.12-16.59-13.47a38.06,38.06,0,0,1-10.88-13.42c-3.85-7.64-8.49-14.88-12.2-22.58S765.11,90.05,766,81.79c1.28-12.32,2.46-24.65,6.29-36.64C776.76,31,785.85,20.66,796.9,11.6a12,12,0,0,1,11.77-2.21c1.58.51,3.23.77,4.84,1.19,13.32,3.45,19.82,11,20.57,24.73.31,5.79-.35,11.63-.43,17.44A61.22,61.22,0,0,0,834,63.51c1.29,7.61,4.27,14.35,11.57,18.24,5.85,3.13,11.54,6.63,17.6,9.27,7.36,3.21,15.32.58,20.11-7.1,4.14-6.65,10-12.53,10-21.44,0-3.65,2.13-7.42,3.77-10.9,1.56-3.3,3.92-5.75,8.06-6.35C922,42.79,927.18,47,928.66,64.31c.76,8.91-1.46,18.18-3.09,27.15-2.63,14.45-7.42,28.32-11.77,42.34-5.08,16.31-11.41,32.57-11.95,49.92a73.31,73.31,0,0,0,2.91,21.18c2.42,8.89,8.28,10.78,17.43,10.36,15.3-.7,26-10.09,37.79-17.66a12,12,0,0,0,4-4.13c5.11-9.7,11.73-18.71,11.13-30.73-.27-5.63,1.66-11.4,2.77-17.06.76-3.85,3.5-5.19,7.24-5.46,10.3-.72,24,7.66,28.26,17.08,3,6.69,4.81,13.47,4.32,20.9a158.16,158.16,0,0,0-.07,17.42c.42,9.44-3.25,17.83-6.17,26.45s-9.74,13.27-17.3,17c-8.7,4.25-17.43,8.6-26.51,11.91a81.37,81.37,0,0,0-38.5,29c-6,8.21-10.58,17.48-15.74,26.3a339.67,339.67,0,0,0-25.43,53c-9.22,24.81-14.31,50.08-5.51,76.29,2.54,7.57,4.53,15.37,7.54,22.75a23.15,23.15,0,0,0,12.62,12.57A60.05,60.05,0,0,1,914,477.71a27.06,27.06,0,0,0,17.15,5.14c26.81-.54,51-8.39,72-25.65,12.67-10.42,25.11-21.17,34.83-34.31,12.5-16.91,24.14-34.57,26.49-56.4s5.1-43.38,6.93-65.12c1.11-13.19.93-26.49,1.08-39.74,0-3.56-1.07-7.13-1.24-10.71-.27-5.34-.19-11.3,4.92-14.12,4.9-2.7,10.5-1.09,14.75,2.52,6.94,5.87,15.13,11.14,19.84,18.54,5.49,8.62,8.5,19.06,11.33,29.07,3.69,13,1.3,26.45.54,39.71-1.14,20-4.18,39.61-12.11,58.17-2.5,5.84-5.26,11.58-8.17,17.23-5.83,11.31-11.62,22.64-17.84,33.73-4.33,7.7-9.42,15-14.08,22.5-10.07,16.22-19.75,32.69-30.21,48.66-10.16,15.51-21.22,30.42-31.65,45.76-10.73,15.78-21.2,31.74-31.77,47.63-4.74,7.14-9.75,14.12-14.09,21.49-5.6,9.51-10.84,19.25-15.86,29.07-3.77,7.35-8.42,14.69-10.07,22.58-3,14.23-7.25,28.36-6.51,43.29.34,6.84,1.46,13.13,4.87,19a73.46,73.46,0,0,1,4.44,8,58.61,58.61,0,0,0,23.78,27.84c8.83,5.5,17.83,10,28,11.89a115.84,115.84,0,0,0,36.37.84,22.25,22.25,0,0,1,5-.16c14.89,1.46,29-1.58,42.95-6.67,11.4-4.17,22.71-8.76,34.4-11.89,15.43-4.14,31.12-8.53,47.35-5.31,14.09,2.81,20.16,11.38,19.09,22.86a22.89,22.89,0,0,1-5.4,12.65c-8.19,8.83-16.16,17.93-28.58,21.8-14.24,4.43-27.85,10.87-42.08,15.36-19.48,6.14-39.29,11.25-59,16.81-6.65,1.88-13.39,3.51-19.9,5.79a55.86,55.86,0,0,0-11.82,5.92c-5.81,3.75-11.42,7.85-16.9,12.09a60.85,60.85,0,0,0-6.92,7c-2.27,2.42-4.11,5.4-6.73,7.33-10.13,7.47-17,17.45-23.17,27.93,13.73-17.66,30.41-33.44,51-42.27,11.31-9.19,25.36-12.43,39-16.43,15.62-4.56,31.53-8.15,47.09-12.9,14.24-4.34,28.24-9.5,42.23-14.6,10.32-3.75,20.61-7.78,29.29-14.76a74.48,74.48,0,0,0,9.35-9.36c3.75-4.32,8.55-8.42,10.43-13.53C1187.36,783.85,1189.14,775.38,1183.6,766.69Z"/><path class="cls-1" d="M606.89,290.37c.14,7.11-6.84,15.46-13.18,15.77-4.38.22-11-6.47-11.18-11.37-.31-6.55,6.43-14.65,12.36-14.85C602.19,279.68,606.76,283.66,606.89,290.37Z"/><path class="cls-1" d="M390.08,545.52c.18,5.89-5.48,11.9-11.35,12.07-5,.14-12.25-7.13-12.45-12.46-.18-5,5.82-10.44,11.68-10.65A11.6,11.6,0,0,1,390.08,545.52Z"/><path class="cls-1" d="M931.79,401.75c0,5.88-7.08,12.8-13,12.75-4.46,0-9.65-6.54-9.46-11.86.24-6.66,6.36-12,13.55-11.74C927.87,391.06,931.8,395.82,931.79,401.75Z"/><path class="cls-1" d="M1157.34,760.28c-16.23-3.22-31.92,1.17-47.35,5.31-11.69,3.13-23,7.72-34.4,11.89-13.9,5.09-28.06,8.13-42.95,6.67a22.25,22.25,0,0,0-5,.16,115.84,115.84,0,0,1-36.37-.84c-10.15-1.86-19.15-6.39-28-11.89a58.61,58.61,0,0,1-23.78-27.84,73.46,73.46,0,0,0-4.44-8c-3.41-5.88-4.53-12.17-4.87-19-.74-14.93,3.54-29.06,6.51-43.29,1.65-7.89,6.3-15.23,10.07-22.58,5-9.82,10.26-19.56,15.86-29.07,4.34-7.37,9.35-14.35,14.09-21.49,10.57-15.89,21-31.85,31.77-47.63,10.43-15.34,21.49-30.25,31.65-45.76,10.46-16,20.14-32.44,30.21-48.66,4.66-7.52,9.75-14.8,14.08-22.5,6.22-11.09,12-22.42,17.84-33.73,2.91-5.65,5.67-11.39,8.17-17.23,7.93-18.56,11-38.17,12.11-58.17.76-13.26,3.15-26.68-.54-39.71-2.83-10-5.84-20.45-11.33-29.07-4.71-7.4-12.9-12.67-19.84-18.54-4.25-3.61-9.85-5.22-14.75-2.52-5.11,2.82-5.19,8.78-4.92,14.12.17,3.58,1.28,7.15,1.24,10.71-.15,13.25,0,26.55-1.08,39.74-1.83,21.74-4.59,43.41-6.93,65.12s-14,39.49-26.49,56.4c-9.72,13.14-22.16,23.89-34.83,34.31-21,17.26-45.18,25.11-72,25.65A27.06,27.06,0,0,1,914,477.71a60.05,60.05,0,0,0-11.33-6.89A23.15,23.15,0,0,1,890,458.25c-3-7.38-5-15.18-7.54-22.75-8.8-26.21-3.71-51.48,5.51-76.29a339.67,339.67,0,0,1,25.43-53c5.16-8.82,9.74-18.09,15.74-26.3a81.37,81.37,0,0,1,38.5-29c9.08-3.31,17.81-7.66,26.51-11.91,7.56-3.7,14.39-8.37,17.3-17s6.59-17,6.17-26.45a158.16,158.16,0,0,1,.07-17.42c.49-7.43-1.31-14.21-4.32-20.9-4.22-9.42-18-17.8-28.26-17.08-3.74.27-6.48,1.61-7.24,5.46-1.11,5.66-3,11.43-2.77,17.06.6,12-6,21-11.13,30.73a12,12,0,0,1-4,4.13c-11.78,7.57-22.49,17-37.79,17.66-9.15.42-15-1.47-17.43-10.36a73.31,73.31,0,0,1-2.91-21.18c.54-17.35,6.87-33.61,11.95-49.92,4.35-14,9.14-27.89,11.77-42.34,1.63-9,3.85-18.24,3.09-27.15C927.18,47,922,42.79,905.11,45.23c-4.14.6-6.5,3.05-8.06,6.35-1.64,3.48-3.78,7.25-3.77,10.9,0,8.91-5.84,14.79-10,21.44-4.79,7.68-12.75,10.31-20.11,7.1-6.06-2.64-11.75-6.14-17.6-9.27-7.3-3.89-10.28-10.63-11.57-18.24a61.22,61.22,0,0,1-.37-10.76c.08-5.81.74-11.65.43-17.44-.75-13.71-7.25-21.28-20.57-24.73-1.61-.42-3.26-.68-4.84-1.19A12,12,0,0,0,796.9,11.6c-11,9.06-20.14,19.43-24.65,33.55-3.83,12-5,24.32-6.29,36.64-.85,8.26-.24,16.77,3.47,24.43s8.35,14.94,12.2,22.58a38.06,38.06,0,0,0,10.88,13.42c5.64,4.35,11.34,8.67,16.59,13.47,5.7,5.21,11,10.87,16.27,16.54a27.23,27.23,0,0,1,5.12,7.46c7.45,17.2,15.46,34.09,17.91,53.16,1.42,11.1,2.3,21.65-.64,32.61-2.84,10.62-7.25,15.48-18.07,17.33-1.64.28-3.26.67-4.88,1-10.26,2.17-19.27-1.14-25.27-8.95-7.87-10.24-14.37-21.57-21.11-32.64-4.17-6.83-7.12-14.45-11.61-21-10.13-14.85-20.51-29.53-32.29-43.21-11.44-13.29-23.38-25.87-39-34.32-3.88-2.1-8-3.83-11.85-5.94-12.24-6.63-25.39-10.91-38.61-15a24.09,24.09,0,0,0-7.37-1.15,13.75,13.75,0,0,0-12.58,8.19c-2.12,4.41-2.08,9.28,1.91,13.08,8.59,8.19,16.29,17.83,26.15,24.05,13,8.22,23,19.16,32.58,30.42,11.21,13.21,20.9,27.76,30.63,42.14,8.18,12.1,15.5,24.78,23.1,37.26A36.32,36.32,0,0,1,743.4,285c5.93,19.85,12.45,39.57,17.24,59.69,3.84,16.1,6.72,32.67,5.45,49.35-1.35,17.65-3,35.34-6,52.77-2.12,12.43-5.32,25-10.43,36.51-5.93,13.3-14.38,25.5-21.92,38.06-6.12,10.19-12.9,20-16.53,31.5-4,12.62-8.75,25-10.16,38.33-1.76,16.64-2.42,33.12,2.58,49.36,1,3.16,2.11,6.26,3.11,9.41,4.28,13.44,8.55,26.9,16.09,39,8.06,12.88,16.16,25.77,24.8,38.27a97.63,97.63,0,0,0,13.86,15.39c10.47,9.77,21.76,18.69,31.87,28.8,7.19,7.2,13.44,15.48,19.3,23.84,5.2,7.42,9.19,15.66,13.88,23.44a39.45,39.45,0,0,0,5.09,6.52,72.76,72.76,0,0,1,18.11,33.11c3.72,15.29.24,25.12-12.65,34.15-10.57,7.42-19.51,7.7-29.32-.4-9.32-7.69-20.24-13.63-27.27-24a15.25,15.25,0,0,0-4.44-3.68c-7.06-4.62-25.63-2-31.08,4.33a17.4,17.4,0,0,0-1.7,2.83c-6.85,12.32-13.57,24.71-20.61,36.92-2.48,4.29-5.8,8.09-8.65,12.18a67,67,0,0,0-5.3,8.23c-4.19,8.42-7.89,16.79-16.3,22.52s-16.6,7.93-25.61,3.41c-9.31-4.69-16.06-11.53-16.12-23.18-.05-8.43.44-16.62,4-24.38,3.8-8.27,7.24-16.76,11.64-24.71,3.26-5.89,3.94-11.55,1.37-17.45-2.2-5-4.52-10.18-7.78-14.53-7.92-10.58-12.33-9.58-23.09-5.3-13.33,5.31-24.18,14.24-30.92,27.43a17.4,17.4,0,0,1-2.7,3.1c-5.11,5.8-10.59,11.34-15.25,17.48-7,9.29-17.23,13.06-27.67,15.09-13.73,2.68-27.56-8.75-29.52-21.12a212.49,212.49,0,0,1-2.52-23.87c-.86-19.74,4.47-38.53,11-56.72,7.23-20,15.73-39.56,24.54-58.91,10.2-22.4,21-44.55,32.18-66.48,11.58-22.74,18.19-46.8,21-72,.94-8.41,2.71-17.24-5-23.93-1.6-8.73-8.81-12.83-15-17.4a15,15,0,0,0-10.08-2.63C570.41,567.85,559,578,554,593.22c-3.87,11.9-4.5,24.92-6,37.51-.37,3-.63,5.81-3.43,6.75-1.69.57-4.4-.15-6-1.26-11.87-8.29-22.89-17.69-30.73-30-9.47-14.85-15-31.56-18.06-48.7-2.26-12.72-2.57-25.94-2.33-38.9.33-18,.7-35.89,3.39-53.82,3.46-23,6.41-46,13-68.44,4-13.77,6.06-28.13,12.72-41.09,1.51-2.94,3-5.91,4.28-8.95,7.09-16.48,13.28-33.42,21.45-49.35a188.28,188.28,0,0,0,14.84-38.58c2.53-9.7,6-19,12.65-26.81,4-4.73,4.86-25.16,1.72-30.38-.15-.24-.35-.43-.51-.66-5.67-8.46-14-10.39-23.32-9-15.8,2.42-27.25,13.45-30.88,31.51-1.9,9.45-2.17,19.21-3.4,28.81-1.26,9.84-1.53,20.05-4.54,29.36-3.69,11.43-8.85,22.51-17.12,31.83-6.34,7.16-14.25,10.89-23.35,10.65-6.79-.18-12.89-3.71-15.45-10.76a95.51,95.51,0,0,1-4.82-16.72,127.59,127.59,0,0,1,.49-43c1.74-9.89,2.84-19.76,2.25-29.75-.78-13.23-1.24-26.35-6.14-39.17-8.16-21.33-26.27-29-46.29-26.66-5.09.6-10.93,1.1-10.88,8.62,0,.45-.52,1-.94,1.32-6.8,5.41-5,12-3,18.91a140.91,140.91,0,0,1,5.1,22.54c.56,4.79-1.37,9.81-1.65,14.76-.52,9.1-4.59,15.52-13,19.27-12.48,5.58-25.3,5.55-38.22,2.23a19.36,19.36,0,0,1-7.92-4.27c-7-6.33-13.37-13.07-17.28-22A56.28,56.28,0,0,0,302,206c-7-8.36-18.12-6.76-22.9,2.89-6.47,13-3.18,29.4,6.75,40.15,7.5,8.13,15.61,15.72,23.74,23.24,6.63,6.12,12.31,12.84,15.08,21.52,4.89,15.29,5.68,31.12,3.7,46.83-1.09,8.65-4.77,17-7.31,25.45-3.47,11.57-12.12,19-21.32,25.71-4.95,3.59-11,4.38-17.45,3.65-11.33-1.27-19.12-8.34-26.75-15.48-12.38-11.58-19.66-26.64-26.89-41.65-5.29-11-11.18-21.6-19.05-31-8.74-10.48-23.76-8.95-28.88,3.61-2.22,5.45-3.55,12-2.92,17.74,2,18.62,7.7,36.22,17.92,52.15a55.32,55.32,0,0,1,3.46,6.61c5.38,11.73,12,22.7,22.44,30.53a201.44,201.44,0,0,0,27.82,17.91c6.49,3.39,14.18,4.46,21.31,6.66,4,1.23,7.78,3.3,11.83,3.86,16.56,2.3,31.16,9.49,45.12,18a254.69,254.69,0,0,0,38,18.6c14.48,5.82,26.69,15.62,36.16,27.27,14.05,17.28,24,37.17,23.28,60.57-.16,5.5.1,11.3-1.54,16.42-3.83,12-7.62,24.17-17.14,33.46-6.9,6.74-14.23,12.2-24.2,13.19-3,.31-5.95,1.37-9,1.69-6.84.75-13.82,2.32-20.55,1.65-14.7-1.48-29.05-4.24-42.93-10.38-15.57-6.89-27-17.42-37.36-30.59-9-11.47-19.64-21.74-30.25-31.8s-21.64-19.79-28.39-33.22c-6.11-12.14-12.54-24-22.94-33.29-7.16-6.37-14.79-5.65-17.63,3.32-3.56,11.23-7,22.81-5,34.93,1.48,9,2.51,18.18,5.05,26.9,3.62,12.44,8.52,24.51,12.71,36.79,2.07,6,7.07,9.76,10.68,14.58,4.47,6,8.43,12.31,12.67,18.44,5.14,7.44,12,12.73,20,17,25,13.47,51.43,24.61,73.28,43.42,1.25,1.08,3.19,1.47,4.16,2.7,2.68,3.37,5.87,6.7,7.35,10.61,5.56,14.78,2,28.76-4.76,42.32-2.67,5.36-6.85,8.41-12.57,9.87-17.43,4.44-34.06,2.66-49.73-6.29a76.61,76.61,0,0,0-35.56-10.43c-11.65-.43-22.92.15-33.91,5.77s-11.57,26.32-1.44,31.77C186,785,195.87,791,206.54,793.8c12.55,3.28,25.12,6.33,37.52,10.27,10.67,3.4,19,10.19,27.15,17.12,4.22,3.61,8.16,7.43,13.16,9.85,11.75,5.67,20.39,14.45,24.84,26.61,2.82,7.73,6.17,16.23,5.46,24s-2.06,15.65-2.77,23.53a31.1,31.1,0,0,1-13.17,23c-8,5.84-16.89,9-27.18,7.72a171.55,171.55,0,0,0-21.5-1.22c-2.56,0-5.11,1.7-7.69,2.55-1.92.64-3.87,1.15-6.29,1.85-.54-8.12,7.28-4.16,9.09-7.93-4.36-7.81-8-9.11-15.09-5.36-10,5.34-10.74,25.85-.94,33.14,3.52,2.61,7.7,4.34,11.55,6.53,4,2.29,8.37,4.21,11.94,7.08,4.83,3.89,9.66,7.22,15.94,8.31a17.26,17.26,0,0,1,7.56,3.15c11.6,9.2,24.88,15.36,38.06,21.76a57.9,57.9,0,0,1,10.52,6.6c8.92,7,17.44,14.57,26.47,21.43,7.65,5.81,13.46,13.1,18.92,20.8q1.44,2,2.9,4c8.74,12.09,17.94,23.85,24.92,37.13l.51,1c17.27,2.77,34.82,3.21,52.36,3.21,122,1,242,8,365-8,24.46-2.91,49.26-5.49,73.21-11.08,9.51-50.29,24.46-99.21,52.78-144.79,4.35-6.87,9.07-13.74,14.2-20.34,6.15-10.48,13-20.46,23.17-27.93,2.62-1.93,4.46-4.91,6.73-7.33a60.85,60.85,0,0,1,6.92-7c5.48-4.24,11.09-8.34,16.9-12.09a55.86,55.86,0,0,1,11.82-5.92c6.51-2.28,13.25-3.91,19.9-5.79,19.67-5.56,39.48-10.67,59-16.81,14.23-4.49,27.84-10.93,42.08-15.36,12.42-3.87,20.39-13,28.58-21.8a22.89,22.89,0,0,0,5.4-12.65C1177.5,771.66,1171.43,763.09,1157.34,760.28Z"/><path class="cls-2" d="M12.51,1267.47q-1.85,5.08-6.18,5.08t-5.59-2.72q-.73-1.55-.74-6.62v-5l.44-13.09q.08-2.73.08-9.93v-11.11l-.15-5.23-.08-5.3c0-1.71,0-3.43-.07-5.15L0,1200.74V1191q0-12.66,1.32-15.16t6-2.5q4.71,0,6.47,7.06,1.18,4.94,1.62,18.54t3.31,13.61q3.39,0,16.41-15.67t15.45-17.95q5.75-5.37,10.67-5.37c3.28,0,4.93.81,4.93,2.43q0,1.62-13.61,19.72t-13.54,22.44q0,1.25,16.11,27t16.19,26.26c0,1.52-1.2,2.29-3.61,2.29H65.63q-4.78,0-9.2-4.35T45.1,1253.72A160.5,160.5,0,0,0,35,1238.49q-6.11-7.59-10.16-7.58t-7.21,6.55q-2.13,4.33-2.94,15.45T12.51,1267.47Zm138.17-86.74q0,7.65-8.68,7.65h-.59l-.29-.07-2.21-.22a2.2,2.2,0,0,0-.51-.08q-4.78,0-4.79-6.54v-1.4c0-2.7.62-4.66,1.84-5.89a6.19,6.19,0,0,1,4.56-1.84l1.7-.22h1.69l2.5.37q4.56,0,4.56,5.15l.22,1.69Zm-2.43,60.33,3.09,22.59v1.62l-.07.73q0,4.79-2,6.77t-7.72,2h-.88q-5.16,0-6.55-5.59-.74-2.88-.74-22.15v-31.49l-.37-4.93V1209c0-2.4.45-4.07,1.33-5a5.54,5.54,0,0,1,4.19-1.4H141c3.49,0,5.62,1.25,6.41,3.75q.51,1.62.51,12.07v15.89l.22,4.42C148.23,1239.3,148.25,1240.08,148.25,1241.06Zm67.11-26.27c0-3.38.41-5.88,1.25-7.5s2.38-2.5,4.63-2.5a16.63,16.63,0,0,1,7.8,2.43,27,27,0,0,0,4.93,2.42,6.62,6.62,0,0,0,2.5-1.32q7.14-5,12.66-5h2.06a8.71,8.71,0,0,1,5.66,1.84,6.22,6.22,0,0,1,2.36,5.22,5.12,5.12,0,0,1-2.95,4.86,17.18,17.18,0,0,1-5.22,1.1,31.1,31.1,0,0,0-7.8,1.91,15,15,0,0,0-6.69,5.74q-4.28,6.26-4.27,24.36l-.3,8.24-.14,4.7q0,6.56-2.14,9.64c-1.37,2.06-3.73,3.09-7.06,3.09h-1.1c-2.95,0-4.74-1.49-5.38-4.49q-.06-.36-.07-14v-14.79l-.07-1.25v-2.43l-.08-1.25v-2.5l-.29-9.5-.29-6.84Zm134.93,16.93a14.83,14.83,0,0,0,8.1-2.14c1.22-.78,1.84-2.35,1.84-4.71v-.44a12.82,12.82,0,0,0-3.24-8.9q-3.24-3.67-9.2-3.68h-.88a18.32,18.32,0,0,0-12.36,5,16.26,16.26,0,0,0-5.59,12.66v1.25q0,2.28,3.45,2.28l.74.15h2.65l.44-.07,4.05-.3.51-.07,2.72-.22,1.18-.15c.44-.05,1.32-.17,2.65-.37A24.83,24.83,0,0,1,350.29,1231.72Zm-3.9,44.07H344.7a34.73,34.73,0,0,1-13.54-2.72,28,28,0,0,1-15.81-17.66,45.32,45.32,0,0,1-2.29-14.13V1238a42.72,42.72,0,0,1,2.87-14.79q5.74-14.87,18.91-19.72a37.4,37.4,0,0,1,12.66-2.2h1.62q10.44,0,17.36,6.47t6.92,17.51v1.47q0,7.8-5,11-3.83,2.43-17.58,4.41T334.4,1245q-4.41,1.39-4.41,4,0,6.69,6.69,11.18,3.9,2.58,12.14,2.58,3.39,0,10.52-2t9.05-2.06c2.9,0,4.34,1.47,4.34,4.41s-2.82,5.79-8.46,8.54A40,40,0,0,1,346.39,1275.79Zm107.87-95.06q0,7.65-8.69,7.65H445l-.3-.07-2.21-.22a2.05,2.05,0,0,0-.51-.08q-4.79,0-4.79-6.54v-1.4c0-2.7.62-4.66,1.84-5.89a6.2,6.2,0,0,1,4.57-1.84l1.69-.22H447l2.5.37c3,0,4.57,1.72,4.57,5.15l.22,1.69Zm-2.43,60.33,3.09,22.59v1.62l-.08.73q0,4.79-2,6.77c-1.33,1.33-3.9,2-7.73,2h-.88q-5.14,0-6.55-5.59-.74-2.88-.74-22.15v-31.49l-.36-4.93V1209q0-3.6,1.32-5a5.55,5.55,0,0,1,4.2-1.4h2.5q5.22,0,6.4,3.75.51,1.62.51,12.07v15.89l.22,4.42C451.8,1239.3,451.83,1240.08,451.83,1241.06Zm92.48,22.66a18.22,18.22,0,0,0,9.27-2.5,16.94,16.94,0,0,0,6.84-7.8q2.51-5.22,3.83-22.66t1.84-19.28c.83-3.82,2.75-5.74,5.74-5.74s4.95,1.16,5.74,3.46,1.17,6.62,1.17,13.1.27,13,.81,19.5.89,11.72.89,15.74l.14,3.31c0,4.17-.68,7-2.06,8.54a6.77,6.77,0,0,1-5.29,2.21,11.82,11.82,0,0,1-6.11-1.7,9.93,9.93,0,0,0-4.12-1.69,15.45,15.45,0,0,0-4.64,1.4c-2.2.93-4.46,1.81-6.76,2.65a28.8,28.8,0,0,1-9.13,1.17h-1.76q-11.78,0-17.44-8T517.61,1238v-7.72l.07-1.91v-3.76q0-16.19.81-18.17c.78-2,2.82-2.94,6.1-2.94s5.64,2,6.92,6q.74,2.28.74,22.36t1.76,24.43Q537,1263.73,544.31,1263.72Zm123.83-58.27a29.87,29.87,0,0,1,10.67-2.21,18.87,18.87,0,0,1,8.31,1.62,62,62,0,0,1,6.84,3.68c2.36,1.42,3.95,2.13,4.79,2.13s3.5-1.05,8-3.16a30.67,30.67,0,0,1,13-3.16,19,19,0,0,1,11.18,3.46,19.66,19.66,0,0,1,7.21,9.78q4.13,11.33,4.12,46.28,0,7.22-4.48,7.21t-6.19-6.18q-1.75-6.26-3.53-21.71t-3.45-19.12q-3.61-7.29-10.89-7.29t-9.94,7.87q-1.76,5.31-3.23,23.84t-1.69,19.21c-.94,3.18-3.17,4.78-6.7,4.78s-5.64-.86-6.48-2.58-1.25-9.59-1.25-23.47-.78-22.56-2.35-25.9-4.64-5.07-9.2-5.07c-2.21,0-4.68.93-7.43,2.79a16.87,16.87,0,0,0-6,7.51q-1.92,4.71-2.94,19.72t-2.43,19.79q-1.41,4.79-5.52,4.78a4.41,4.41,0,0,1-4.2-2.65q-1.25-2.64-1.25-9.56l.08-2.73v-5.59q0-25.82,2.13-36.12c.84-4,3-6,6.48-6l8.09,1.17Zm155.61-24.72q0,7.65-8.68,7.65h-.59l-.29-.07-2.21-.22a2.2,2.2,0,0,0-.52-.08c-3.18,0-4.78-2.18-4.78-6.54v-1.4c0-2.7.62-4.66,1.84-5.89a6.19,6.19,0,0,1,4.56-1.84l1.7-.22h1.69l2.5.37q4.56,0,4.56,5.15l.22,1.69Zm-2.43,60.33,3.09,22.59v1.62l-.07.73q0,4.79-2,6.77t-7.72,2h-.88q-5.16,0-6.55-5.59-.74-2.88-.74-22.15v-31.49l-.37-4.93V1209c0-2.4.45-4.07,1.33-5a5.54,5.54,0,0,1,4.19-1.4h2.5q5.24,0,6.4,3.75.53,1.62.52,12.07v15.89l.22,4.42C821.3,1239.3,821.32,1240.08,821.32,1241.06ZM951,1216.27c0,3.63.51,5.88,1.54,6.77s3.36,1.25,7,1.25h.74l.66-.08h.66q12.58,0,19.13-6t6.55-16.41v-2.28q0-8.68-5.3-13.54t-15.3-4.85H966l-.66.07q-8.09,0-11.62,1.77-2.3,1.17-2.29,6l-.14,1.32-.08,2.13V1201l-.07,2.21v6.62l-.07,2.87Zm-14-3.61-1-27.66q0-10.74,4-12.29,6.84-2.65,28.25-2.65h3.31q13.38,0,22.07,7.06a26.63,26.63,0,0,1,7.36,9.64,29.4,29.4,0,0,1,2.79,12.88v1.69q0,16.7-13.16,26.41-6.63,4.86-21.56,7.44t-16.26,4.48c-1.43,2-2.43,6.94-3,14.94s-1.1,12.53-1.54,13.76c-1,2.89-2.87,4.34-5.67,4.34H941.4q-3.31,0-4.78-1.4c-1-.93-1.48-2.53-1.48-4.78V1265l.67-9.27c.34-4.9.51-8.56.51-11l.08-1.62c0-1.08.07-2.16.07-3.24l.15-3.23c.09-2.16.14-3.78.14-4.86l.15-3.16.15-8Zm136.55,42.09q0,4.71,4.57,7.87,3,2.13,8.53,2.13h.44a17.86,17.86,0,0,1,2.8-.22q4.92,0,8.83-4.41t4-8.46l.15-.89.22-3.9v-3.82c0-1.82-.62-3-1.84-3.68s-3.46-1-6.84-1h-1l-.51.07h-1l-3.1.22a18,18,0,0,1-2.5.22,13.51,13.51,0,0,0-9.12,3.31,11.21,11.21,0,0,0-3.75,8.83v2.14C1073.56,1253.91,1073.61,1254.45,1073.61,1254.75Zm-5.22-40.1q-4.86,0-4.86-5.3c0-2.45,1.7-4.51,5.08-6.18a38.13,38.13,0,0,1,17.29-4.05h3.53a35.73,35.73,0,0,1,13.76,2.65,20.49,20.49,0,0,1,9.93,8.17q4.43,7,4.42,31a142,142,0,0,0,.88,18.69,63.08,63.08,0,0,1,1,8.83q0,5.52-7.07,5.52a10.06,10.06,0,0,1-5.88-1.91c-1.82-1.28-3.26-1.92-4.34-1.92s-3.95.94-8.61,2.8a37.68,37.68,0,0,1-14,2.8q-9.95,0-15.6-6.26a22.22,22.22,0,0,1-5.59-15.38v-1.69q0-11.17,9.71-17.29,6.33-4,19.5-5.44t14-2.36a5.77,5.77,0,0,0,1-3.75c0-.54,0-1.1-.07-1.69q-1-10.45-14.72-10.52a41.37,41.37,0,0,0-11.11,1.69A39.49,39.49,0,0,1,1068.39,1214.65Zm114.78.14c0-3.38.41-5.88,1.25-7.5s2.38-2.5,4.63-2.5a16.63,16.63,0,0,1,7.8,2.43,27.38,27.38,0,0,0,4.93,2.42,6.54,6.54,0,0,0,2.5-1.32q7.14-5,12.66-5H1219a8.67,8.67,0,0,1,5.66,1.84,6.22,6.22,0,0,1,2.36,5.22,5.12,5.12,0,0,1-3,4.86,17.18,17.18,0,0,1-5.22,1.1,31.1,31.1,0,0,0-7.8,1.91,15,15,0,0,0-6.69,5.74q-4.27,6.26-4.27,24.36l-.29,8.24-.15,4.7q0,6.56-2.13,9.64c-1.38,2.06-3.73,3.09-7.07,3.09h-1.1c-2.95,0-4.74-1.49-5.37-4.49q-.07-.36-.08-14v-14.79l-.07-1.25v-2.43l-.07-1.25v-2.5l-.3-9.5-.29-6.84Zm108.38-47h1.76q5.22,0,6.7,6.25,1,4.28,1,27.52t2.43,23.18q2.49,0,13.46-10.67t16.92-10.74c3.92,0,5.89.83,5.89,2.5q0,.66-8.46,13t-8.46,15.45q0,3.16,10.66,18.32t10.67,17.51c0,1.57-1.08,2.35-3.24,2.35a13.45,13.45,0,0,1-9.05-3q-3.45-3.09-11.47-15.38t-11.85-12.29q-3.82,0-5.88,6.85a61.09,61.09,0,0,0-1.55,9.49q-.73,7.07-2.58,10.37c-1.17,2.21-3.26,3.31-6.25,3.31s-4.78-1.32-5.37-4q-1.54-7-1.55-20.53v-9.12l.08-2.28v-6.92l.07-4.71.22-9.34.3-20.75q0-20.82.44-22.44A4.77,4.77,0,0,1,1291.55,1167.78Z"/></g></g></svg>